<?xml version="1.0" encoding="UTF-8" standalone="no"?>
<!-- Created with Inkscape (http://www.inkscape.org/) -->

<svg
   width="256"
   height="256"
   viewBox="-128 -128 256 256"
   version="1.1"
   id="svg1"
   xmlns="http://www.w3.org/2000/svg"
   xmlns:svg="http://www.w3.org/2000/svg">
  <defs
     id="defs1" />
  <g
     id="layer1">
    <path
       style="font-size:256px;line-height:1.25;font-family:'Noto Sans JP';-inkscape-font-specification:'Noto Sans JP';text-align:center;letter-spacing:0px;word-spacing:0px;text-anchor:middle;fill:#8dd2d9"
       d="m 0.89600003,97.151997 q -19.96800003,0 -36.86400003,-7.424 -16.64,-7.424 -28.672,-20.224 l 14.08,-16.384 q 9.984,10.496 23.552,16.896 13.568,6.4 28.16,6.4 18.688,0 28.928,-8.448 10.496,-8.448 10.496,-22.016 0,-9.984 -4.352,-15.872 -4.096,-5.888 -11.264,-9.728 -6.912,-4.096 -15.872,-7.936 L -17.792,0.6399975 q -8.704,-3.84 -17.664,-9.728 -8.704,-5.8880005 -14.592,-15.3600005 -5.888,-9.472 -5.888,-23.04 0,-14.592 7.68,-25.6 7.68,-11.264 20.992,-17.664 13.312,-6.4 30.464,-6.4 16.896,0 30.976,6.4 14.336,6.4 24.064,16.64 l -12.288,15.104 q -8.704,-7.936 -19.2,-12.544 -10.24,-4.864 -23.552,-4.864 -15.872,0 -25.6,7.424 -9.472,7.168 -9.472,19.712 0,9.216 4.608,15.104 4.864,5.888 12.032,9.472 7.168,3.584 14.59200003,6.912 L 25.984,-6.2720025 q 10.752,4.608 19.456,11.008 8.96,6.3999995 14.08,15.8719995 5.12,9.472 5.12,23.296 0,14.848 -7.68,27.136 -7.68,12.032 -22.016,19.2 -14.336,6.912 -34.04799997,6.912 z"
       id="text1"
       aria-label="S" />
    <circle
       style="fill:#3eaab9;stroke-width:37.7953"
       id="path1"
       cx="70"
       cy="-50"
       r="40" />
    <circle
       style="fill:#3eaab9;stroke-width:37.7953"
       id="path1-1"
       cx="-70"
       cy="50"
       r="40" />
  </g>
</svg>
